M48
; DRILL file {KiCad 7.0.10} date Tue Jun 25 20:59:24 2024
; FORMAT={-:-/ absolute / inch / decimal}
; #@! TF.CreationDate,2024-06-25T20:59:24+02:00
; #@! TF.GenerationSoftware,Kicad,Pcbnew,7.0.10
; #@! TF.FileFunction,Plated,1,2,PTH
FMAT,2
INCH
; #@! TA.AperFunction,Plated,PTH,ComponentDrill
T1C0.0295
; #@! TA.AperFunction,Plated,PTH,ComponentDrill
T2C0.0315
; #@! TA.AperFunction,Plated,PTH,ComponentDrill
T3C0.0354
; #@! TA.AperFunction,Plated,PTH,ComponentDrill
T4C0.0394
; #@! TA.AperFunction,Plated,PTH,ComponentDrill
T5C0.0433
; #@! TA.AperFunction,Plated,PTH,ComponentDrill
T6C0.0472
; #@! TA.AperFunction,Plated,PTH,ComponentDrill
T7C0.0512
; #@! TA.AperFunction,Plated,PTH,ComponentDrill
T8C0.0551
%
G90
G05
T1
X1.9972Y-0.9394
X1.9972Y-1.4118
X2.0472Y-0.9394
X2.0472Y-1.4118
X2.0972Y-0.9394
X2.0972Y-1.4118
T2
X-0.6614Y-1.3671
X-0.6614Y-1.4671
X-0.6614Y-1.6614
X-0.6614Y-1.7614
X-0.6614Y-1.8614
X-0.6614Y-1.9614
X-0.3614Y-1.3671
X-0.3614Y-1.4671
X-0.3614Y-1.6614
X-0.3614Y-1.7614
X-0.3614Y-1.8614
X-0.3614Y-1.9614
X-0.1772Y-1.3386
X-0.1772Y-1.5354
X-0.1575Y-1.6732
X-0.1575Y-2.0732
X-0.0031Y-1.1024
X0.0Y-1.4567
X0.0394Y-1.6701
X0.0394Y-2.0701
X0.0787Y-0.3543
X0.0787Y-0.4528
X0.1378Y-0.7087
X0.2165Y-0.7087
X0.2362Y-1.6701
X0.2362Y-2.0701
X0.3969Y-1.1024
X0.4Y-1.4567
X0.4921Y-0.7087
X0.5709Y-0.7087
X0.6299Y-0.3543
X0.6299Y-0.4528
X1.4142Y-0.7087
X1.4142Y-0.9055
X1.4142Y-1.1024
X1.4142Y-1.2992
X1.4142Y-1.4961
X1.4142Y-1.6929
X1.5748Y-1.9685
X1.6535Y-1.9685
X1.8142Y-0.7087
X1.8142Y-0.9055
X1.8142Y-1.1024
X1.8142Y-1.2992
X1.8142Y-1.4961
X1.8142Y-1.6929
X1.9488Y-1.1614
X1.9882Y-0.7087
X2.0866Y-0.7087
X2.1457Y-1.1614
X3.1831Y-1.9047
X3.1831Y-2.2047
X3.2831Y-1.9047
X3.2831Y-2.2047
X3.3831Y-1.9047
X3.3831Y-2.2047
X3.4831Y-1.9047
X3.4831Y-2.2047
X3.5831Y-1.9047
X3.5831Y-2.2047
X3.6831Y-1.9047
X3.6831Y-2.2047
X3.7831Y-1.9047
X3.7831Y-2.2047
X3.8831Y-1.9047
X3.8831Y-2.2047
X3.9831Y-1.9047
X3.9831Y-2.2047
T3
X0.5299Y-1.1024
X0.5299Y-1.4567
X0.6299Y-1.1024
X0.6299Y-1.4567
X2.5984Y-1.1024
X2.6378Y-1.4567
X2.6984Y-1.1024
X2.7165Y-0.748
X2.7378Y-1.4567
X2.8165Y-0.748
X2.8346Y-1.811
X2.9346Y-1.811
X2.9921Y-0.4331
X3.0921Y-0.4331
X3.3465Y-0.2756
X3.4465Y-0.2756
X3.7402Y-0.2756
X3.8402Y-0.2756
X4.0945Y-0.4331
X4.1945Y-0.4331
X4.252Y-1.811
X4.352Y-1.811
X4.3701Y-0.748
X4.4094Y-1.4567
X4.4701Y-0.748
X4.4882Y-1.1024
X4.5094Y-1.4567
X4.5882Y-1.1024
T4
X0.4724Y-2.0866
X0.5724Y-2.0866
X0.6102Y-1.7323
X0.6102Y-1.8323
X0.9252Y-0.778
X0.9252Y-1.1717
X0.9252Y-1.5654
X1.0236Y-0.9748
X1.0236Y-1.3685
X1.0236Y-1.7622
X1.122Y-0.778
X1.122Y-1.1717
X1.122Y-1.5654
T5
X0.1543Y-0.1575
X0.2543Y-0.4309
X0.3543Y-0.4309
X0.4543Y-0.4309
X0.5543Y-0.1575
X2.3228Y-0.7055
X2.3228Y-1.1055
X2.3228Y-1.237
X2.3228Y-1.637
T6
X1.9685Y-1.9685
X2.1654Y-1.9685
T7
X-0.6791Y-0.7874
X-0.6791Y-0.9843
X-0.187Y-0.7874
X-0.187Y-0.9843
T8
X1.3583Y-0.1378
X1.5551Y-0.1378
X1.9882Y-0.1378
X2.185Y-0.1378
T2
G00X-0.4748Y-0.3819
M15
G01X-0.4748Y-0.4882
M16
G05
G00X-0.2425Y-0.2972
M15
G01X-0.3291Y-0.2972
M16
G05
G00X-0.2425Y-0.5335
M15
G01X-0.3291Y-0.5335
M16
G05
M30
